HIERARCHY
ROOT reference
{
  OFFSET -65.3212 -1.93545 -120.338
  CHANNELS 6 Xposition Yposition Zposition Zrotation Xrotation Yrotation
  JOINT Hips
  {
    OFFSET 0 78.7191 0
    CHANNELS 3 Zrotation Xrotation Yrotation
    JOINT Chest
    {
      OFFSET 0 8.7983 -4.7612
      CHANNELS 3 Zrotation Xrotation Yrotation
      JOINT Chest2
      {
        OFFSET 0 8.0291 0.4195
        CHANNELS 3 Zrotation Xrotation Yrotation
        JOINT Chest3
        {
          OFFSET 0 9.9351 -2.2114
          CHANNELS 3 Zrotation Xrotation Yrotation
          JOINT Neck
          {
            OFFSET 0 22.3885 -0.4656
            CHANNELS 3 Zrotation Xrotation Yrotation
            JOINT Head
            {
              OFFSET -0.0001 12.643 3.4389
              CHANNELS 3 Zrotation Xrotation Yrotation
              End Site
              {
                OFFSET 0.0001 17.6655 0.5274
              }
            }
          }
          JOINT LeftCollar
          {
            OFFSET 2.2603 21.606 7.4023
            CHANNELS 3 Zrotation Xrotation Yrotation
            JOINT LeftShoulder
            {
              OFFSET 13.5163 -1.1332 -5.0146
              CHANNELS 3 Zrotation Xrotation Yrotation
              JOINT LeftElbow
              {
                OFFSET -0.0995 -28.05 -0.2431
                CHANNELS 3 Zrotation Xrotation Yrotation
                JOINT LeftWrist
                {
                  OFFSET 0.0679 -23.3996 -0.1402
                  CHANNELS 3 Zrotation Xrotation Yrotation
                  JOINT LeftFinger1
                  {
                    OFFSET 0.7932 -9.069 2.5189
                    CHANNELS 3 Zrotation Xrotation Yrotation
                    JOINT LeftFinger11
                    {
                      OFFSET -0.8272 -3.3923 0.5977
                      CHANNELS 3 Zrotation Xrotation Yrotation
                      JOINT LeftFinger12
                      {
                        OFFSET -0.5649 -2.3158 0.4082
                        CHANNELS 3 Zrotation Xrotation Yrotation
                        End Site
                        {
                          OFFSET -0.4919 -1.6479 0.2673
                        }
                      }
                    }
                  }
                  JOINT LeftFinger2
                  {
                    OFFSET 0.9159 -9.2044 0.2193
                    CHANNELS 3 Zrotation Xrotation Yrotation
                    JOINT LeftFinger21
                    {
                      OFFSET 0.0117 -4.1944 -0.0248
                      CHANNELS 3 Zrotation Xrotation Yrotation
                      JOINT LeftFinger22
                      {
                        OFFSET 0.0071 -2.3249 -0.0142
                        CHANNELS 3 Zrotation Xrotation Yrotation
                        End Site
                        {
                          OFFSET -0.1475 -2.0882 0.0028
                        }
                      }
                    }
                  }
                  JOINT LeftFinger3
                  {
                    OFFSET 0.6113 -8.7231 -2.0637
                    CHANNELS 3 Zrotation Xrotation Yrotation
                    JOINT LeftFinger31
                    {
                      OFFSET -0.1927 -3.8059 -0.2383
                      CHANNELS 3 Zrotation Xrotation Yrotation
                      JOINT LeftFinger32
                      {
                        OFFSET -0.1091 -2.1688 -0.1362
                        CHANNELS 3 Zrotation Xrotation Yrotation
                        End Site
                        {
                          OFFSET -0.2358 -1.9176 -0.0906
                        }
                      }
                    }
                  }
                  JOINT LeftFinger4
                  {
                    OFFSET -0.6151 -8.0947 -3.5641
                    CHANNELS 3 Zrotation Xrotation Yrotation
                    JOINT LeftFinger41
                    {
                      OFFSET -0.4882 -2.341 -0.6462
                      CHANNELS 3 Zrotation Xrotation Yrotation
                      JOINT LeftFinger42
                      {
                        OFFSET -0.3575 -1.7167 -0.4742
                        CHANNELS 3 Zrotation Xrotation Yrotation
                        End Site
                        {
                          OFFSET -0.4187 -1.5237 -0.3496
                        }
                      }
                    }
                  }
                  JOINT LeftFinger0
                  {
                    OFFSET -1.42 -1.8761 1.4223
                    CHANNELS 3 Zrotation Xrotation Yrotation
                    JOINT LeftFinger01
                    {
                      OFFSET -1.1471 -3.4929 2.6334
                      CHANNELS 3 Zrotation Xrotation Yrotation
                      JOINT LeftFinger02
                      {
                        OFFSET -0.823 -2.3 1.6571
                        CHANNELS 3 Zrotation Xrotation Yrotation
                        End Site
                        {
                          OFFSET -0.5822 -1.6914 1.1582
                        }
                      }
                    }
                  }
                }
              }
            }
          }
          JOINT RightCollar
          {
            OFFSET -2.2603 21.606 7.4023
            CHANNELS 3 Zrotation Xrotation Yrotation
            JOINT RightShoulder
            {
              OFFSET -13.5187 -1.1334 -5.0155
              CHANNELS 3 Zrotation Xrotation Yrotation
              JOINT RightElbow
              {
                OFFSET 0.0994 -28.0499 -0.2431
                CHANNELS 3 Zrotation Xrotation Yrotation
                JOINT RightWrist
                {
                  OFFSET -0.0679 -23.3996 -0.1402
                  CHANNELS 3 Zrotation Xrotation Yrotation
                  JOINT RightFinger1
                  {
                    OFFSET -0.7932 -9.0691 2.5189
                    CHANNELS 3 Zrotation Xrotation Yrotation
                    JOINT RightFinger11
                    {
                      OFFSET 0.8272 -3.3923 0.5977
                      CHANNELS 3 Zrotation Xrotation Yrotation
                      JOINT RightFinger12
                      {
                        OFFSET 0.565 -2.3158 0.4082
                        CHANNELS 3 Zrotation Xrotation Yrotation
                        End Site
                        {
                          OFFSET 0.4919 -1.6479 0.2673
                        }
                      }
                    }
                  }
                  JOINT RightFinger2
                  {
                    OFFSET -0.916 -9.2044 0.2193
                    CHANNELS 3 Zrotation Xrotation Yrotation
                    JOINT RightFinger21
                    {
                      OFFSET -0.0117 -4.1944 -0.0248
                      CHANNELS 3 Zrotation Xrotation Yrotation
                      JOINT RightFinger22
                      {
                        OFFSET -0.0071 -2.3249 -0.0142
                        CHANNELS 3 Zrotation Xrotation Yrotation
                        End Site
                        {
                          OFFSET 0.1475 -2.0882 0.0028
                        }
                      }
                    }
                  }
                  JOINT RightFinger3
                  {
                    OFFSET -0.6113 -8.7231 -2.0637
                    CHANNELS 3 Zrotation Xrotation Yrotation
                    JOINT RightFinger31
                    {
                      OFFSET 0.1927 -3.8059 -0.2383
                      CHANNELS 3 Zrotation Xrotation Yrotation
                      JOINT RightFinger32
                      {
                        OFFSET 0.1091 -2.1688 -0.1362
                        CHANNELS 3 Zrotation Xrotation Yrotation
                        End Site
                        {
                          OFFSET 0.2358 -1.9176 -0.0906
                        }
                      }
                    }
                  }
                  JOINT RightFinger4
                  {
                    OFFSET 0.6151 -8.0947 -3.564
                    CHANNELS 3 Zrotation Xrotation Yrotation
                    JOINT RightFinger41
                    {
                      OFFSET 0.4882 -2.341 -0.6462
                      CHANNELS 3 Zrotation Xrotation Yrotation
                      JOINT RightFinger42
                      {
                        OFFSET 0.3574 -1.7166 -0.4742
                        CHANNELS 3 Zrotation Xrotation Yrotation
                        End Site
                        {
                          OFFSET 0.4187 -1.5237 -0.3496
                        }
                      }
                    }
                  }
                  JOINT RightFinger0
                  {
                    OFFSET 1.4199 -1.8761 1.4221
                    CHANNELS 3 Zrotation Xrotation Yrotation
                    JOINT RightFinger01
                    {
                      OFFSET 1.1472 -3.4929 2.6336
                      CHANNELS 3 Zrotation Xrotation Yrotation
                      JOINT RightFinger02
                      {
                        OFFSET 0.8229 -2.3 1.6571
                        CHANNELS 3 Zrotation Xrotation Yrotation
                        End Site
                        {
                          OFFSET 0.5822 -1.6914 1.1582
                        }
                      }
                    }
                  }
                }
              }
            }
          }
        }
      }
    }
    JOINT RightHip
    {
      OFFSET -9.412 3.9771 -0.7758
      CHANNELS 3 Zrotation Xrotation Yrotation
      JOINT RightKnee
      {
        OFFSET -0.7531 -40.938 0
        CHANNELS 3 Zrotation Xrotation Yrotation
        JOINT RightAnkle
        {
          OFFSET 0 -40.1986 0
          CHANNELS 3 Zrotation Xrotation Yrotation
          JOINT RightToe
          {
            OFFSET 0 -4.4182 9.239
            CHANNELS 3 Zrotation Xrotation Yrotation
            End Site
            {
              OFFSET 0 0 6.1981
            }
          }
        }
      }
    }
    JOINT LeftHip
    {
      OFFSET 9.4119 3.9773 -0.7758
      CHANNELS 3 Zrotation Xrotation Yrotation
      JOINT LeftKnee
      {
        OFFSET 0.7532 -40.9383 0
        CHANNELS 3 Zrotation Xrotation Yrotation
        JOINT LeftAnkle
        {
          OFFSET 0 -40.1986 0
          CHANNELS 3 Zrotation Xrotation Yrotation
          JOINT LeftToe
          {
            OFFSET 0 -4.4182 9.239
            CHANNELS 3 Zrotation Xrotation Yrotation
            End Site
            {
              OFFSET 0 0 6.1981
            }
          }
        }
      }
    }
  }
}
MOTION
Frames:	8
Frame Time:	0.0333333
-7.30913 -1.43466 -2.24322 0 0 -0 3.79865 -4.6025 -3.55088 -2.18698 0.540446 -0.542365 -4.36907 1.10118 -1.06377 -4.36908 1.10118 -1.06378 6.02733 -0.60649 -1.10694 -1.86102 2.81195 -3.18034 3.53108 0.526956 -9.09109 5.6195 7.41569 31.4755 -174.278 -74.4348 -134.386 14.7371 -18.4559 46.034 22.5374 -13.1075 3.82301 -0.16878 -2.22033 -0.890391 4.78063 -2.95262 0.379448 29.9147 -16.415 7.31446 -0.369735 -2.06321 0.400461 4.76846 -2.94937 0.590907 30.3561 -15.1061 9.51857 -0.370901 -2.27281 0.767682 4.63056 -3.13811 0.737655 33.202 -8.71672 11.8129 -0.0709149 -2.03057 1.73333 4.63659 -3.08805 0.910617 -1.77598 -2.37556 0.455717 -1.23472 -0.601614 0.234495 -1.7761 -2.37524 0.455955 1.76456 0.248294 10.363 -0.0159725 9.488 -25.0771 4.37908 -29.8825 -10.6248 -4.03661 -6.2959 6.36743 5.32543 1.81347 -0.170134 5.32399 1.81294 -0.170157 5.32282 1.81302 -0.169961 5.32257 1.81353 0.0423422 5.32327 1.81395 0.0427668 5.32332 1.81418 0.0424582 5.23669 2.02815 0.202892 5.23854 2.02954 0.203106 5.23893 2.02938 0.203173 5.24637 1.97521 0.355889 5.24876 1.97628 0.35587 5.24814 1.97607 0.356017 -1.16955 2.64228 0.857599 -1.16998 2.64219 0.85788 -1.1697 2.64199 0.857686 -12.7054 -7.4443 -3.2463 0.737503 12.1017 -0.142502 10.3381 -0.613189 -6.02978 -0.376262 -2.64394 0.142984 -9.449 9.66279 -5.48018 0.113091 1.63944 0.488187 5.67316 -6.48953 10.6898 -0.139369 -0.23845 4.44358e-005 
-7.31032 -1.43839 -2.21382 0 0 -0 3.79132 -4.62518 -3.5501 -2.16619 0.492655 -0.561012 -4.32769 1.00614 -1.10305 -4.32769 1.00615 -1.10305 6.33295 -0.567201 -0.0258278 -1.81037 2.78337 -2.0324 3.3587 0.434251 -9.13333 5.74111 7.63456 31.5208 -172.148 -74.7052 -132.175 13.6822 -17.7727 45.8847 22.5374 -13.1075 3.82302 -0.168818 -2.22032 -0.890395 4.78065 -2.95263 0.379461 29.9147 -16.415 7.31449 -0.369875 -2.06317 0.400499 4.7685 -2.94935 0.590954 30.3561 -15.1061 9.51859 -0.370761 -2.27282 0.767718 4.63051 -3.13818 0.7376 33.202 -8.71672 11.8129 -0.0710867 -2.03059 1.73327 4.63677 -3.08798 0.909947 -1.77597 -2.37557 0.455723 -1.23474 -0.601625 0.234503 -1.77609 -2.37526 0.455994 1.90044 0.223357 10.3603 -0.162571 9.54535 -25.1055 4.43672 -29.8983 -10.5324 -4.04514 -6.23172 6.36663 5.32543 1.81348 -0.170118 5.32396 1.81293 -0.170151 5.32282 1.81303 -0.16996 5.32256 1.81353 0.0423417 5.32328 1.81393 0.0428193 5.32332 1.81418 0.042472 5.23667 2.02813 0.202891 5.23856 2.02955 0.203121 5.2389 2.02938 0.203165 5.24636 1.97522 0.355958 5.24872 1.97628 0.355875 5.24813 1.97606 0.356033 -1.16951 2.64229 0.857561 -1.16999 2.64217 0.857883 -1.16972 2.64198 0.857678 -12.7057 -7.43247 -3.23904 0.746648 12.165 -0.153261 10.3362 -0.663306 -6.01484 -0.3762 -2.64395 0.142883 -9.44155 9.69503 -5.40421 0.112403 1.66066 0.487597 5.69343 -6.58073 10.6227 -0.115466 -0.203946 0.000129968 
-7.31121 -1.44242 -2.1942 0 0 -0 3.78277 -4.64208 -3.53221 -2.14761 0.448038 -0.583344 -4.29074 0.917591 -1.14954 -4.29075 0.91759 -1.14954 6.59305 -0.648759 1.13612 -1.77676 2.60169 -0.834048 3.26196 0.372336 -9.16925 5.75333 7.79798 31.5335 -170.065 -74.9197 -130.021 12.743 -17.1042 45.6869 22.5374 -13.1075 3.82306 -0.168708 -2.22033 -0.890368 4.78063 -2.95263 0.379455 29.9147 -16.415 7.31453 -0.369814 -2.06314 0.400605 4.76843 -2.94943 0.590851 30.3561 -15.1061 9.5186 -0.370918 -2.27274 0.767815 4.6305 -3.13819 0.737594 33.202 -8.71671 11.8129 -0.0708861 -2.03065 1.73322 4.63699 -3.08788 0.909294 -1.77594 -2.37558 0.455728 -1.23478 -0.601599 0.234537 -1.77611 -2.37524 0.456037 2.04362 0.199428 10.3507 -0.315119 9.59125 -25.1311 4.4958 -29.9193 -10.4365 -4.04089 -6.15642 6.33447 5.32541 1.81347 -0.170073 5.324 1.81294 -0.17016 5.3228 1.81304 -0.169948 5.32258 1.81354 0.0423687 5.32328 1.81391 0.0429194 5.32332 1.81415 0.0425022 5.2367 2.02815 0.202907 5.23855 2.02952 0.203117 5.2389 2.02939 0.203178 5.24637 1.97519 0.355797 5.24871 1.97625 0.355889 5.24814 1.97603 0.35606 -1.16954 2.64227 0.857544 -1.16997 2.64217 0.857901 -1.16971 2.64198 0.857694 -12.7037 -7.42787 -3.21877 0.756654 12.23 -0.181321 10.3367 -0.712812 -6.01401 -0.376213 -2.64393 0.142875 -9.43432 9.67536 -5.31157 0.110565 1.76403 0.483839 5.72056 -6.7234 10.5288 -0.0915579 -0.169434 0.00021356 
-7.31167 -1.44756 -2.17244 0 0 -0 3.77423 -4.67264 -3.51474 -2.13184 0.402281 -0.603438 -4.25948 0.826716 -1.19153 -4.25949 0.826719 -1.19153 6.81573 -0.831882 2.35081 -1.75165 2.42405 0.385027 3.24486 0.349942 -9.18261 5.67368 7.9387 31.5093 -168.005 -75.0808 -127.899 11.9372 -16.434 45.4697 22.5374 -13.1075 3.82311 -0.168873 -2.22031 -0.890401 4.78066 -2.95262 0.379473 29.9147 -16.4149 7.31462 -0.36983 -2.06321 0.40041 4.76844 -2.9494 0.590853 30.3561 -15.1061 9.51863 -0.370921 -2.27283 0.76761 4.63051 -3.13819 0.73759 33.202 -8.71671 11.8129 -0.0709377 -2.03063 1.73324 4.63719 -3.08777 0.908626 -1.77596 -2.37559 0.455748 -1.23477 -0.601555 0.234612 -1.77611 -2.37521 0.456123 2.17272 0.175781 10.3514 -0.417531 9.68058 -25.1794 4.53092 -29.9081 -10.3531 -4.03471 -6.12935 6.29575 5.32542 1.81351 -0.170004 5.32399 1.81295 -0.170149 5.32285 1.81303 -0.16995 5.32257 1.81357 0.0424244 5.32326 1.81394 0.0427138 5.32333 1.81413 0.0425691 5.23667 2.02816 0.202964 5.23857 2.02953 0.203124 5.23892 2.02937 0.203183 5.24638 1.97519 0.355799 5.24871 1.97626 0.355908 5.24816 1.97599 0.356118 -1.16952 2.64228 0.857494 -1.17003 2.64214 0.857959 -1.16971 2.64198 0.857686 -12.7086 -7.40974 -3.22439 0.773395 12.2957 -0.195267 10.331 -0.760146 -5.9997 -0.376202 -2.64394 0.142882 -9.43353 9.67344 -5.31648 0.115469 1.86098 0.509436 5.70914 -6.78703 10.5011 -0.0534851 -0.16614 0.000230517 
-7.31062 -1.45377 -2.15953 0 0 -0 3.76852 -4.70158 -3.49564 -2.11881 0.357471 -0.621726 -4.23373 0.737678 -1.22984 -4.23374 0.737678 -1.22985 7.02728 -1.04343 3.60379 -1.73817 2.27041 1.62911 3.27089 0.349852 -9.18336 5.5304 8.04574 31.459 -166.034 -75.1657 -125.877 11.3094 -15.7627 45.2327 22.5374 -13.1074 3.82319 -0.16877 -2.22032 -0.890359 4.78064 -2.95262 0.37948 29.9147 -16.415 7.31444 -0.369776 -2.06323 0.400408 4.76844 -2.94941 0.590861 30.3561 -15.106 9.51863 -0.370918 -2.27283 0.767627 4.63051 -3.13819 0.737585 33.202 -8.71669 11.8129 -0.0709745 -2.03063 1.73327 4.63738 -3.08768 0.907944 -1.77595 -2.37559 0.455761 -1.23473 -0.601615 0.234463 -1.7761 -2.37524 0.45594 2.28889 0.153179 10.3548 -0.491277 9.7638 -25.2284 4.55371 -29.8912 -10.288 -4.02682 -6.12989 6.23415 5.32543 1.81347 -0.170154 5.32401 1.81294 -0.170155 5.32281 1.81303 -0.169946 5.32255 1.81355 0.0425074 5.32326 1.81396 0.0427248 5.32332 1.81419 0.0424421 5.23667 2.02816 0.203039 5.23856 2.02951 0.203171 5.2389 2.02937 0.203171 5.24637 1.97518 0.355813 5.24873 1.97624 0.355921 5.24813 1.9761 0.356007 -1.16953 2.64227 0.857379 -1.17004 2.64209 0.85805 -1.16972 2.64197 0.857686 -12.7199 -7.39454 -3.24535 0.79382 12.3531 -0.202699 10.3223 -0.796469 -5.98112 -0.376214 -2.64394 0.142893 -9.43194 9.69738 -5.33861 0.118414 1.88864 0.524538 5.69031 -6.78442 10.4935 -0.00853408 -0.233013 0.00022921 
-7.30875 -1.46089 -2.15555 0 0 -0 3.76516 -4.72496 -3.47538 -2.10886 0.315682 -0.637627 -4.21419 0.654619 -1.26323 -4.2142 0.654621 -1.26323 7.26627 -1.24902 4.88381 -1.73718 2.22179 2.91346 3.29454 0.351563 -9.17012 5.38718 8.12468 31.3892 -164.138 -75.1555 -123.937 10.9729 -15.1011 45.082 22.5374 -13.1075 3.823 -0.168768 -2.22031 -0.890311 4.78063 -2.9526 0.379505 29.9147 -16.415 7.31446 -0.369886 -2.06318 0.400415 4.76845 -2.94942 0.590856 30.3561 -15.106 9.51871 -0.370869 -2.27285 0.767634 4.63051 -3.13819 0.737589 33.202 -8.71667 11.813 -0.071036 -2.03059 1.73328 4.6376 -3.08758 0.907284 -1.77597 -2.37558 0.455794 -1.23474 -0.601619 0.234471 -1.77609 -2.37525 0.455952 2.38606 0.132163 10.3707 -0.520974 9.84108 -25.2793 4.57396 -29.8761 -10.2494 -4.03929 -6.13561 6.26201 5.32542 1.81347 -0.170139 5.32401 1.81295 -0.170166 5.32282 1.81303 -0.169906 5.32256 1.81352 0.0423152 5.32327 1.81396 0.0427262 5.32332 1.81419 0.0424425 5.23669 2.02815 0.20288 5.23857 2.0295 0.203211 5.23893 2.02936 0.203181 5.24638 1.97519 0.355816 5.24874 1.97622 0.355987 5.24813 1.97609 0.355998 -1.16954 2.64227 0.857594 -1.16997 2.64218 0.857857 -1.16971 2.64199 0.857705 -12.7377 -7.40993 -3.28786 0.815806 12.4496 -0.201092 10.3109 -0.844159 -5.9511 -0.376224 -2.64394 0.142898 -9.43157 9.69519 -5.39819 0.119172 1.94305 0.530472 5.67626 -6.75528 10.5274 0.0378591 -0.380756 0.000340822 
-7.30964 -1.46886 -2.15614 0 0 -0 3.75678 -4.74581 -3.44824 -2.10148 0.279054 -0.652673 -4.19974 0.58184 -1.2947 -4.19973 0.581839 -1.2947 7.57865 -1.39272 6.16865 -1.74893 2.33763 4.22944 3.31483 0.355586 -9.1399 5.26199 8.17132 31.2977 -162.387 -75.0467 -122.152 10.921 -14.4653 44.9883 22.5374 -13.1075 3.82302 -0.168857 -2.22031 -0.890266 4.78065 -2.95256 0.379552 29.9147 -16.415 7.31449 -0.369779 -2.0632 0.40042 4.76843 -2.94941 0.590858 30.3561 -15.1061 9.51859 -0.370787 -2.27285 0.767648 4.63052 -3.13818 0.737598 33.202 -8.71672 11.8129 -0.070792 -2.03061 1.73326 4.63779 -3.08748 0.906625 -1.77597 -2.37561 0.455868 -1.23473 -0.601619 0.234468 -1.77609 -2.37523 0.455961 2.46297 0.113049 10.3988 -0.531654 9.93592 -25.3304 4.58838 -29.8618 -10.2471 -4.07331 -6.14126 6.48039 5.3254 1.81346 -0.170136 5.324 1.81294 -0.170139 5.32283 1.81301 -0.169878 5.32256 1.81352 0.0423218 5.32329 1.81396 0.0427483 5.32332 1.81418 0.0424381 5.23669 2.02814 0.202872 5.23859 2.02945 0.203327 5.23892 2.02935 0.203208 5.24636 1.97519 0.355824 5.24872 1.9763 0.355887 5.24814 1.97607 0.356011 -1.16953 2.64227 0.857564 -1.16997 2.64219 0.857865 -1.16969 2.64198 0.857703 -12.7481 -7.42536 -3.34416 0.834595 12.5405 -0.19605 10.2982 -0.886555 -5.91906 -0.376244 -2.64393 0.142937 -9.42527 9.67196 -5.5199 0.119338 2.02725 0.535134 5.69325 -6.69237 10.6147 0.0801943 -0.619445 0.000656149 
-7.31339 -1.4731 -2.16106 0 0 -0 3.7419 -4.76721 -3.41273 -2.09659 0.249376 -0.668607 -4.19016 0.523013 -1.32767 -4.19018 0.523014 -1.32767 7.92494 -1.42687 7.40294 -1.7566 2.44805 5.49974 3.345 0.358344 -9.12115 5.10432 8.18146 31.1965 -160.843 -74.7077 -120.586 10.9588 -13.7375 44.8655 22.5374 -13.1075 3.82303 -0.16888 -2.22032 -0.890407 4.78066 -2.95253 0.379634 29.9147 -16.415 7.31448 -0.369804 -2.0632 0.400464 4.76844 -2.9494 0.590855 30.3561 -15.1061 9.51858 -0.370865 -2.27281 0.767672 4.63053 -3.13817 0.73761 33.202 -8.71671 11.8129 -0.0709817 -2.03056 1.73336 4.638 -3.08737 0.905964 -1.77595 -2.37558 0.455725 -1.23471 -0.601602 0.23449 -1.77609 -2.37524 0.455973 2.5473 0.0966279 10.4239 -0.536923 9.97515 -25.3628 4.59787 -29.8553 -10.2265 -4.09491 -6.14611 6.53164 5.32542 1.81347 -0.170126 5.32399 1.81292 -0.170127 5.32284 1.81302 -0.169794 5.32258 1.81353 0.0423086 5.32326 1.81395 0.0427565 5.32332 1.81418 0.0424491 5.2367 2.02814 0.202875 5.23853 2.02955 0.203114 5.23894 2.0293 0.203263 5.24638 1.97519 0.355879 5.2487 1.97627 0.355869 5.24813 1.97607 0.356022 -1.16954 2.64227 0.857545 -1.16998 2.64218 0.857864 -1.1697 2.64198 0.857728 -12.7431 -7.41817 -3.37001 0.848242 12.5869 -0.209266 10.2895 -0.908975 -5.91014 -0.376271 -2.64393 0.143007 -9.40356 9.6694 -5.5773 0.116625 2.07175 0.526033 5.68879 -6.66982 10.6379 0.0888287 -0.684052 0.000743988 
